<svg width="44" height="44" viewBox="0 0 44 44" fill="none" xmlns="http://www.w3.org/2000/svg">
<path d="M26.5 13C29.538 13 32 15.5 32 19C32 24.8727 26.7211 28.6338 23.5446 30.5787C22.5997 31.1572 21.4003 31.1572 20.4554 30.5787C17.2789 28.6338 12 24.8727 12 19C12 15.5 14.5 13 17.5 13C19.36 13 21 14 22 15C23 14 24.64 13 26.5 13ZM22.934 28.604C23.815 28.048 24.61 27.495 25.354 26.903C28.335 24.533 30 21.943 30 19C30 16.64 28.463 15 26.5 15C25.424 15 24.26 15.57 23.414 16.414L22 17.828L20.586 16.414C19.74 15.57 18.576 15 17.5 15C15.56 15 14 16.656 14 19C14 21.944 15.666 24.533 18.645 26.903C19.39 27.495 20.185 28.048 21.066 28.603C21.2064 28.6917 21.3461 28.7787 21.4899 28.8669C21.8029 29.0589 22.197 29.0588 22.5101 28.867C22.6539 28.779 22.7936 28.6923 22.934 28.604Z" fill="#222427"/>
</svg>
