<svg width="90" height="36" viewBox="0 0 90 36" fill="none" xmlns="http://www.w3.org/2000/svg">
<path d="M24.958 2.25L11.3446 0V36L24.958 33.75V2.25Z" fill="#222427"/>
<rect width="2.2689" height="2.25" transform="matrix(-1 0 0 1 15.8823 15.75)" fill="white"/>
<rect width="11.3445" height="31.5" transform="matrix(-1 0 0 1 11.3445 2.24927)" fill="#8BBF1F"/>
<path d="M35.0713 3H37.4243V4.21581C38.9198 4.21581 39.9447 4.4691 40.499 4.97568C41.0533 5.47214 41.3304 6.44985 41.3304 7.90881V9.38298C41.3304 9.94022 41.2781 10.4063 41.1736 10.7812C41.069 11.1459 40.8807 11.4802 40.6088 11.7842C40.3369 12.078 39.9395 12.2958 39.4166 12.4377C38.8937 12.5795 38.2296 12.6505 37.4243 12.6505V13.8207H35.0713V12.6505C34.266 12.6505 33.6019 12.5795 33.079 12.4377C32.5561 12.2958 32.1587 12.078 31.8868 11.7842C31.6149 11.4802 31.4266 11.1459 31.322 10.7812C31.2175 10.4063 31.1652 9.94022 31.1652 9.38298V7.90881C31.1652 6.43972 31.4423 5.45694 31.9966 4.96049C32.5509 4.46403 33.5758 4.21581 35.0713 4.21581V3ZM37.4243 5.76596V11.1003H37.7538C38.1198 11.1003 38.3708 10.9635 38.5068 10.69C38.6532 10.4164 38.7264 9.95036 38.7264 9.29179V7.49848C38.7264 6.83992 38.6532 6.38906 38.5068 6.1459C38.3708 5.8926 38.1198 5.76596 37.7538 5.76596H37.4243ZM35.0713 11.1003V5.76596H34.7418C34.3758 5.76596 34.1196 5.8926 33.9732 6.1459C33.8372 6.38906 33.7692 6.83992 33.7692 7.49848V9.29179C33.7692 9.95036 33.8372 10.4164 33.9732 10.69C34.1196 10.9635 34.3758 11.1003 34.7418 11.1003H35.0713Z" fill="#222427"/>
<path d="M45.5406 9.51976H46.4818L46.0269 4.70213H45.9955L45.5406 9.51976ZM44.5366 3H48.1133L49.5565 13.8207H46.9681L46.6701 11.1611H45.2582L44.8347 13.8207H42.6385L44.5366 3Z" fill="#222427"/>
<path d="M53.4762 8.80547V12.2705H53.8841C54.3128 12.2705 54.5795 12.1591 54.6841 11.9362C54.7992 11.7133 54.8567 11.2573 54.8567 10.5684C54.8567 9.8693 54.7992 9.40324 54.6841 9.17021C54.5795 8.92705 54.3128 8.80547 53.8841 8.80547H53.4762ZM50.8721 3H56.6921V4.55015H53.4762V7.25532H54.6684C55.0972 7.25532 55.4632 7.30091 55.7665 7.3921C56.0698 7.47315 56.3574 7.62513 56.6293 7.84802C56.9012 8.07092 57.1052 8.41033 57.2411 8.86626C57.3875 9.32219 57.4607 9.88956 57.4607 10.5684C57.4607 11.7943 57.215 12.6454 56.7234 13.1216C56.2424 13.5876 55.5678 13.8207 54.6998 13.8207H50.8721V3Z" fill="#222427"/>
<path d="M61.5373 4.55015V8.09119H61.9452C62.374 8.09119 62.6406 7.97467 62.7452 7.74164C62.8603 7.49848 62.9178 7.02736 62.9178 6.32827C62.9178 5.62918 62.8603 5.15805 62.7452 4.91489C62.6406 4.67173 62.374 4.55015 61.9452 4.55015H61.5373ZM61.5373 9.64134V13.8207H58.9332V3H62.1177C63.2472 3 64.0943 3.16717 64.659 3.50152C65.2342 3.83587 65.5218 4.44377 65.5218 5.32523V7.30091C65.5218 8.06079 65.2238 8.64336 64.6277 9.04863C64.042 9.44377 63.3309 9.64134 62.4942 9.64134H61.5373Z" fill="#222427"/>
<path d="M66.9943 3H69.3474V9.17021H69.3631L71.1514 3H73.7241V13.8207H71.3711V7.58967H71.3554L69.5357 13.8207H66.9943V3Z" fill="#222427"/>
<path d="M77.7974 3V7.90881H77.8288L79.4759 3H81.9545L80.2132 7.77204L81.9702 13.8207H79.3975L77.8288 8.33435H77.7974V13.8207H75.1933V3H77.7974Z" fill="#222427"/>
<path d="M85.984 9.51976H86.9252L86.4703 4.70213H86.4389L85.984 9.51976ZM84.98 3H88.5567L89.9999 13.8207H87.4115L87.1135 11.1611H85.7016L85.2781 13.8207H83.0819L84.98 3Z" fill="#222427"/>
<path d="M32.075 20.0973H38.0361V29.2766H38.5695V33H36.138V30.9179H33.4398V33H31.0083V29.2766H31.5417C31.7508 28.6079 31.892 27.924 31.9652 27.2249C32.0384 26.5157 32.075 25.5684 32.075 24.383V20.0973ZM35.4321 21.7386H34.2712V24.5198C34.2712 26.6272 34.0778 28.2128 33.6908 29.2766H35.4321V21.7386Z" fill="#222427"/>
<path d="M42.4891 26.0395V29.3678C43.0956 29.3678 43.4774 29.2715 43.6342 29.079C43.7911 28.8764 43.8695 28.3799 43.8695 27.5897C43.8695 27.2047 43.8539 26.9108 43.8225 26.7082C43.7911 26.4954 43.7074 26.3384 43.5715 26.2371C43.446 26.1358 43.3153 26.08 43.1793 26.0699C43.0434 26.0496 42.8133 26.0395 42.4891 26.0395ZM39.885 30.9179V20.0973H42.5205C42.9179 20.0973 43.2264 20.1023 43.446 20.1125C43.6656 20.1125 43.9375 20.1327 44.2617 20.1733C44.5859 20.2036 44.8369 20.2543 45.0147 20.3252C45.1925 20.386 45.386 20.4823 45.5951 20.614C45.8148 20.7356 45.9769 20.8875 46.0814 21.0699C46.1965 21.2523 46.2906 21.4853 46.3638 21.769C46.437 22.0426 46.4736 22.3617 46.4736 22.7264C46.4736 24.2259 45.8566 25.0314 44.6225 25.1429V25.2492C45.0199 25.2492 45.3494 25.3151 45.6108 25.4468C45.8723 25.5785 46.0605 25.7761 46.1756 26.0395C46.2906 26.2928 46.369 26.5562 46.4109 26.8298C46.4527 27.0932 46.4736 27.4276 46.4736 27.8328C46.4736 28.2584 46.4422 28.6282 46.3795 28.9423C46.3272 29.2563 46.2592 29.5248 46.1756 29.7477C46.0919 29.9706 45.9559 30.1581 45.7677 30.31C45.5899 30.4519 45.4121 30.5633 45.2343 30.6444C45.067 30.7254 44.8212 30.7862 44.497 30.8267C44.1728 30.8673 43.88 30.8926 43.6186 30.9027C43.3571 30.9129 42.9911 30.9179 42.5205 30.9179H39.885ZM42.4891 21.6474V24.4894C43.0852 24.4894 43.4617 24.4032 43.6186 24.231C43.7859 24.0486 43.8695 23.6636 43.8695 23.076C43.8695 22.4782 43.7859 22.0932 43.6186 21.921C43.4512 21.7386 43.0747 21.6474 42.4891 21.6474Z" fill="#222427"/>
<path d="M47.9461 20.0973H53.3425V21.7386H50.5502V24.1094H53.2484V25.7508H50.5502V29.2766H53.3425V30.9179H47.9461V20.0973Z" fill="#222427"/>
<path d="M57.1713 21.6474V25.1885H57.5791C58.0079 25.1885 58.2746 25.0719 58.3792 24.8389C58.4942 24.5957 58.5517 24.1246 58.5517 23.4255C58.5517 22.7264 58.4942 22.2553 58.3792 22.0122C58.2746 21.769 58.0079 21.6474 57.5791 21.6474H57.1713ZM57.1713 26.7386V30.9179H54.5672V20.0973H57.7517C58.8812 20.0973 59.7283 20.2644 60.293 20.5988C60.8682 20.9331 61.1558 21.541 61.1558 22.4225V24.3982C61.1558 25.1581 60.8577 25.7406 60.2616 26.1459C59.676 26.541 58.9648 26.7386 58.1282 26.7386H57.1713Z" fill="#222427"/>
<path d="M62.6283 20.0973H68.0247V21.7386H65.2324V24.1094H67.9305V25.7508H65.2324V29.2766H68.0247V30.9179H62.6283V20.0973Z" fill="#222427"/>
<path d="M69.2494 20.0973H71.6024V26.2675H71.6181L73.4065 20.0973H75.9792V30.9179H73.6261V24.6869H73.6104L71.7907 30.9179H69.2494V20.0973ZM70.52 17.4225H71.3358C71.4299 17.9797 71.8953 18.2584 72.7319 18.2584C73.4326 18.2584 73.8405 17.9797 73.9555 17.4225H74.7869C74.7869 18.0912 74.583 18.5978 74.1751 18.9423C73.7673 19.2766 73.2339 19.4438 72.575 19.4438C71.9789 19.4438 71.4874 19.2614 71.1005 18.8967C70.7135 18.5319 70.52 18.0405 70.52 17.4225Z" fill="#222427"/>
</svg>
